TITLE ""
FILE "Disc4Track69.mp3" MP3
  TRACK 01 AUDIO
    TITLE "Disc4Track69_01"
    INDEX 01 00:00:00
  TRACK 02 AUDIO
    TITLE "Disc4Track69_02"
    INDEX 01 00:01:10
  TRACK 03 AUDIO
    TITLE "Disc4Track69_03"
    INDEX 01 00:03:07
  TRACK 04 AUDIO
    TITLE "Disc4Track69_04"
    INDEX 01 00:04:26
  TRACK 05 AUDIO
    TITLE "Disc4Track69_05"
    INDEX 01 00:06:15
  TRACK 06 AUDIO
    TITLE "Disc4Track69_06"
    INDEX 01 00:06:48
  TRACK 07 AUDIO
    TITLE "Disc4Track69_07"
    INDEX 01 00:07:69
  TRACK 08 AUDIO
    TITLE "Disc4Track69_08"
    INDEX 01 00:09:64
  TRACK 09 AUDIO
    TITLE "Disc4Track69_09"
    INDEX 01 00:11:06
  TRACK 10 AUDIO
    TITLE "Disc4Track69_10"
    INDEX 01 00:14:40
  TRACK 11 AUDIO
    TITLE "Disc4Track69_11"
    INDEX 01 00:14:69
  TRACK 12 AUDIO
    TITLE "Disc4Track69_12"
    INDEX 01 00:16:13
  TRACK 13 AUDIO
    TITLE "Disc4Track69_13"
    INDEX 01 00:17:34
  TRACK 14 AUDIO
    TITLE "Disc4Track69_14"
    INDEX 01 00:18:47
  TRACK 15 AUDIO
    TITLE "Disc4Track69_15"
    INDEX 01 00:22:33
  TRACK 16 AUDIO
    TITLE "Disc4Track69_16"
    INDEX 01 00:22:63
  TRACK 17 AUDIO
    TITLE "Disc4Track69_17"
    INDEX 01 00:24:09
  TRACK 18 AUDIO
    TITLE "Disc4Track69_18"
    INDEX 01 00:26:31
  TRACK 19 AUDIO
    TITLE "Disc4Track69_19"
    INDEX 01 00:27:48
  TRACK 20 AUDIO
    TITLE "Disc4Track69_20"
    INDEX 01 00:32:38
  TRACK 21 AUDIO
    TITLE "Disc4Track69_21"
    INDEX 01 00:32:69
  TRACK 22 AUDIO
    TITLE "Disc4Track69_22"
    INDEX 01 00:34:09
  TRACK 23 AUDIO
    TITLE "Disc4Track69_23"
    INDEX 01 00:35:28
  TRACK 24 AUDIO
    TITLE "Disc4Track69_24"
    INDEX 01 00:36:43
  TRACK 25 AUDIO
    TITLE "Disc4Track69_25"
    INDEX 01 00:38:23
  TRACK 26 AUDIO
    TITLE "Disc4Track69_26"
    INDEX 01 00:38:56
  TRACK 27 AUDIO
    TITLE "Disc4Track69_27"
    INDEX 01 00:39:73
  TRACK 28 AUDIO
    TITLE "Disc4Track69_28"
    INDEX 01 00:40:63
  TRACK 29 AUDIO
    TITLE "Disc4Track69_29"
    INDEX 01 00:42:03
  TRACK 30 AUDIO
    TITLE "Disc4Track69_30"
    INDEX 01 00:46:28
  TRACK 31 AUDIO
    TITLE "Disc4Track69_31"
    INDEX 01 00:46:59
  TRACK 32 AUDIO
    TITLE "Disc4Track69_32"
    INDEX 01 00:47:69
  TRACK 33 AUDIO
    TITLE "Disc4Track69_33"
    INDEX 01 00:49:70
  TRACK 34 AUDIO
    TITLE "Disc4Track69_34"
    INDEX 01 00:50:75
  TRACK 35 AUDIO
    TITLE "Disc4Track69_35"
    INDEX 01 00:54:30
  TRACK 36 AUDIO
    TITLE "Disc4Track69_36"
    INDEX 01 00:54:61
  TRACK 37 AUDIO
    TITLE "Disc4Track69_37"
    INDEX 01 00:56:03
  TRACK 38 AUDIO
    TITLE "Disc4Track69_38"
    INDEX 01 00:58:55
  TRACK 39 AUDIO
    TITLE "Disc4Track69_39"
    INDEX 01 00:59:70
  TRACK 40 AUDIO
    TITLE "Disc4Track69_40"
    INDEX 01 01:03:15
  TRACK 41 AUDIO
    TITLE "Disc4Track69_41"
    INDEX 01 01:03:46
  TRACK 42 AUDIO
    TITLE "Disc4Track69_42"
    INDEX 01 01:04:55
  TRACK 43 AUDIO
    TITLE "Disc4Track69_43"
    INDEX 01 01:05:49
  TRACK 44 AUDIO
    TITLE "Disc4Track69_44"
    INDEX 01 01:06:56
  TRACK 45 AUDIO
    TITLE "Disc4Track69_45"
    INDEX 01 01:09:33
  TRACK 46 AUDIO
    TITLE "Disc4Track69_46"
    INDEX 01 01:09:64
  TRACK 47 AUDIO
    TITLE "Disc4Track69_47"
    INDEX 01 01:10:74
  TRACK 48 AUDIO
    TITLE "Disc4Track69_48"
    INDEX 01 01:13:50
  TRACK 49 AUDIO
    TITLE "Disc4Track69_49"
    INDEX 01 01:14:56
  TRACK 50 AUDIO
    TITLE "Disc4Track69_50"
    INDEX 01 01:18:75
  TRACK 51 AUDIO
    TITLE "Disc4Track69_51"
    INDEX 01 01:19:27
  TRACK 52 AUDIO
    TITLE "Disc4Track69_52"
    INDEX 01 01:20:35
  TRACK 53 AUDIO
    TITLE "Disc4Track69_53"
    INDEX 01 01:22:30
  TRACK 54 AUDIO
    TITLE "Disc4Track69_54"
    INDEX 01 01:23:33
  TRACK 55 AUDIO
    TITLE "Disc4Track69_55"
    INDEX 01 01:28:44
  TRACK 56 AUDIO
    TITLE "Disc4Track69_56"
    INDEX 01 01:28:75
  TRACK 57 AUDIO
    TITLE "Disc4Track69_57"
    INDEX 01 01:30:19
  TRACK 58 AUDIO
    TITLE "Disc4Track69_58"
    INDEX 01 01:31:40
  TRACK 59 AUDIO
    TITLE "Disc4Track69_59"
    INDEX 01 01:32:58
  TRACK 60 AUDIO
    TITLE "Disc4Track69_60"
    INDEX 01 01:37:47
  TRACK 61 AUDIO
    TITLE "Disc4Track69_61"
    INDEX 01 01:38:23
  TRACK 62 AUDIO
    TITLE "Disc4Track69_62"
    INDEX 01 01:39:20
  TRACK 63 AUDIO
    TITLE "Disc4Track69_63"
    INDEX 01 01:40:26
  TRACK 64 AUDIO
    TITLE "Disc4Track69_64"
    INDEX 01 01:41:41
  TRACK 65 AUDIO
    TITLE "Disc4Track69_65"
    INDEX 01 01:46:26
  TRACK 66 AUDIO
    TITLE "Disc4Track69_66"
    INDEX 01 01:46:58
  TRACK 67 AUDIO
    TITLE "Disc4Track69_67"
    INDEX 01 01:47:73
  TRACK 68 AUDIO
    TITLE "Disc4Track69_68"
    INDEX 01 01:50:59
  TRACK 69 AUDIO
    TITLE "Disc4Track69_69"
    INDEX 01 01:51:73
  TRACK 70 AUDIO
    TITLE "Disc4Track69_70"
    INDEX 01 01:55:51
  TRACK 71 AUDIO
    TITLE "Disc4Track69_71"
    INDEX 01 01:56:07
  TRACK 72 AUDIO
    TITLE "Disc4Track69_72"
    INDEX 01 01:57:12
  TRACK 73 AUDIO
    TITLE "Disc4Track69_73"
    INDEX 01 01:59:11
  TRACK 74 AUDIO
    TITLE "Disc4Track69_74"
    INDEX 01 02:00:15
  TRACK 75 AUDIO
    TITLE "Disc4Track69_75"
    INDEX 01 02:01:71
